<svg xmlns="http://www.w3.org/2000/svg" viewBox="0 0 224.67 224.67"><defs><style>.cls-1{fill:none;stroke:#000;stroke-miterlimit:10;stroke-width:2px;}</style></defs><title>pictogps</title><g id="Calque_2" data-name="Calque 2"><g id="Calque_2-2" data-name="Calque 2"><path d="M112.41,45.51c35.37,0,61.68,36.53,47.38,69.67-9.9,22.93-24.16,42.81-41.78,60.36-2.6,2.59-5.19,5.78-9.46,1.6-20.1-19.7-37.05-41.67-45.66-68.74C54.57,82.29,73.45,52.82,101.07,47,104.79,46.24,108.63,46,112.41,45.51Zm-.24,36.27A15.55,15.55,0,0,0,96.8,97.47,15.59,15.59,0,1,0,128,97,15.47,15.47,0,0,0,112.18,81.78Z"/><rect class="cls-1" x="1" y="1" width="222.67" height="222.67"/></g></g></svg>