<svg xmlns="http://www.w3.org/2000/svg" viewBox="0 0 224.67 224.67"><defs><style>.cls-1{fill:none;stroke:#000;stroke-miterlimit:10;stroke-width:2px;}</style></defs><title>pictogilet</title><g id="Calque_2" data-name="Calque 2"><g id="Calque_2-2" data-name="Calque 2"><path d="M156.82,121.94c0,13.88,0,27.77,0,41.65a21.46,21.46,0,0,1-41.47,7.92,22.34,22.34,0,0,1-1.49-8.23q0-28.39,0-56.77a17.09,17.09,0,0,1,4.24-11.59c2.32-2.69,4.67-5.36,6.92-8.11a16.48,16.48,0,1,0-25.42-.14c2.22,2.77,4.57,5.44,6.92,8.11a17,17,0,0,1,4.36,11.55c0,19.09.08,38.18,0,57.27a21.48,21.48,0,0,1-21.77,21.67c-11.87-.12-21.21-9.76-21.23-22q0-39.67,0-79.33c0-23.18,18.08-42.86,40.68-44.42,23.93-1.66,44.46,14.64,47.85,38.05A53.09,53.09,0,0,1,156.8,85C156.84,97.31,156.82,109.62,156.82,121.94Z"/><rect class="cls-1" x="1" y="1" width="222.67" height="222.67"/></g></g></svg>